<svg id="svg" version="1.1" xmlns="http://www.w3.org/2000/svg" xmlns:xlink="http://www.w3.org/1999/xlink" width="400" height="400" viewBox="0, 0, 400,400"><g id="svgg"><path id="path0" d="M275.831 96.749 C 275.721 96.927,274.423 97.112,272.946 97.160 C 271.469 97.208,269.943 97.416,269.556 97.623 C 269.169 97.831,268.131 98.000,267.250 98.000 C 266.368 98.000,265.536 98.180,265.400 98.400 C 265.264 98.620,264.544 98.800,263.800 98.800 C 263.056 98.800,262.336 98.980,262.200 99.200 C 262.064 99.420,261.434 99.600,260.800 99.600 C 260.166 99.600,259.536 99.780,259.400 100.000 C 259.264 100.220,258.623 100.400,257.976 100.400 C 257.329 100.400,256.800 100.580,256.800 100.800 C 256.800 101.020,256.260 101.200,255.600 101.200 C 254.940 101.200,254.400 101.380,254.400 101.600 C 254.400 101.820,253.860 102.000,253.200 102.000 C 252.540 102.000,252.000 102.180,252.000 102.400 C 252.000 102.620,251.449 102.800,250.776 102.800 C 250.063 102.800,249.656 102.967,249.800 103.200 C 249.940 103.427,249.604 103.600,249.024 103.600 C 248.461 103.600,248.000 103.780,248.000 104.000 C 248.000 104.220,247.640 104.400,247.200 104.400 C 246.760 104.400,246.400 104.580,246.400 104.800 C 246.400 105.020,246.057 105.200,245.638 105.200 C 244.822 105.200,241.488 106.801,241.267 107.300 C 241.193 107.465,240.788 107.600,240.367 107.600 C 239.945 107.600,239.600 107.758,239.600 107.950 C 239.600 108.142,239.058 108.408,238.396 108.541 C 237.646 108.691,237.021 109.155,236.741 109.770 C 236.377 110.569,236.082 110.716,235.203 110.541 C 234.420 110.384,234.044 110.509,233.860 110.987 C 233.720 111.352,233.424 111.539,233.203 111.402 C 232.981 111.265,232.800 111.343,232.800 111.576 C 232.800 111.809,232.545 112.000,232.233 112.000 C 231.922 112.000,231.607 112.167,231.533 112.370 C 231.460 112.574,231.130 112.799,230.800 112.870 C 230.470 112.942,229.769 113.495,229.242 114.100 C 228.715 114.705,227.950 115.200,227.542 115.200 C 227.134 115.200,226.800 115.380,226.800 115.600 C 226.800 115.820,226.608 116.000,226.374 116.000 C 226.140 116.000,225.071 116.900,224.000 118.000 C 222.929 119.100,221.849 120.000,221.600 120.000 C 221.351 120.000,220.271 120.900,219.200 122.000 C 218.129 123.100,216.970 124.000,216.626 124.000 C 216.267 124.000,216.000 124.341,216.000 124.800 C 216.000 125.333,215.733 125.600,215.200 125.600 C 214.661 125.600,214.400 125.867,214.400 126.418 C 214.400 126.974,214.177 127.198,213.700 127.118 C 213.233 127.039,212.958 127.299,212.872 127.900 C 212.755 128.724,212.352 128.992,211.466 128.836 C 211.282 128.804,211.036 129.140,210.920 129.584 C 210.804 130.028,210.550 130.292,210.355 130.172 C 210.160 130.051,210.000 130.199,210.000 130.501 C 210.000 130.802,209.640 131.436,209.200 131.908 C 208.760 132.380,208.400 133.044,208.400 133.383 C 208.400 133.733,208.054 134.000,207.600 134.000 C 207.142 134.000,206.800 134.267,206.800 134.624 C 206.800 134.993,206.612 135.131,206.338 134.962 C 206.064 134.793,205.985 134.851,206.142 135.106 C 206.288 135.342,206.136 135.807,205.804 136.139 C 205.472 136.471,205.200 136.986,205.200 137.283 C 205.200 137.580,204.840 138.083,204.400 138.400 C 203.960 138.717,203.600 139.297,203.600 139.688 C 203.600 140.133,203.300 140.400,202.800 140.400 C 202.239 140.400,201.998 140.669,201.994 141.300 C 201.989 141.945,201.892 142.049,201.650 141.667 C 201.425 141.313,201.246 141.716,201.116 142.867 C 200.999 143.902,200.354 145.486,199.514 146.800 C 190.486 160.926,185.192 178.784,184.218 198.400 C 184.081 201.150,183.796 203.460,183.585 203.533 C 183.373 203.607,183.200 204.202,183.200 204.857 C 183.200 205.512,183.050 205.955,182.867 205.841 C 182.683 205.728,182.533 205.897,182.533 206.218 C 182.533 206.538,182.662 206.800,182.820 206.800 C 183.402 206.800,183.510 208.432,182.964 208.978 C 182.654 209.289,182.400 210.186,182.400 210.971 C 182.400 211.785,182.201 212.400,181.938 212.400 C 181.638 212.400,181.683 212.645,182.067 213.100 C 182.682 213.827,182.618 215.200,181.971 215.200 C 181.767 215.200,181.600 215.920,181.600 216.800 C 181.600 217.709,181.408 218.400,181.155 218.400 C 180.884 218.400,180.781 218.886,180.891 219.637 C 181.008 220.438,180.884 220.946,180.539 221.079 C 180.197 221.210,180.092 221.628,180.246 222.242 C 180.430 222.975,180.325 223.200,179.797 223.200 C 179.297 223.200,179.166 223.427,179.322 224.024 C 179.458 224.542,179.315 224.934,178.939 225.079 C 178.529 225.236,178.418 225.617,178.586 226.287 C 178.779 227.055,178.653 227.313,178.008 227.482 C 177.373 227.648,177.285 227.820,177.626 228.231 C 178.139 228.850,177.737 229.737,177.060 229.480 C 176.774 229.371,176.570 229.851,176.522 230.745 C 176.479 231.537,176.254 232.249,176.022 232.326 C 175.790 232.403,175.600 232.722,175.600 233.033 C 175.600 233.345,175.420 233.600,175.200 233.600 C 174.980 233.600,174.800 233.870,174.800 234.200 C 174.800 234.530,174.620 234.800,174.400 234.800 C 174.180 234.800,174.000 235.160,174.000 235.600 C 174.000 236.040,173.820 236.400,173.600 236.400 C 173.380 236.400,173.200 236.688,173.200 237.040 C 173.200 237.391,172.660 238.183,172.000 238.800 C 171.340 239.417,170.800 240.209,170.800 240.560 C 170.800 240.912,170.524 241.200,170.187 241.200 C 169.851 241.200,169.458 241.515,169.315 241.900 C 169.172 242.285,168.728 242.891,168.328 243.247 C 167.927 243.603,167.600 244.188,167.600 244.547 C 167.600 244.906,167.435 245.200,167.233 245.200 C 166.571 245.200,163.529 248.388,163.702 248.901 C 163.898 249.482,162.876 250.369,161.988 250.387 C 161.652 250.394,161.112 250.780,160.788 251.244 C 159.656 252.869,158.074 254.400,157.528 254.400 C 157.225 254.400,156.717 254.760,156.400 255.200 C 156.083 255.640,155.503 256.000,155.112 256.000 C 154.667 256.000,154.400 256.300,154.400 256.800 C 154.400 257.333,154.133 257.600,153.600 257.600 C 153.160 257.600,152.800 257.757,152.800 257.950 C 152.800 258.143,152.260 258.408,151.600 258.540 C 150.870 258.686,150.400 259.029,150.400 259.417 C 150.400 259.872,150.171 259.981,149.600 259.800 C 149.141 259.654,148.800 259.728,148.800 259.973 C 148.800 260.208,148.440 260.400,148.000 260.400 C 147.560 260.400,147.200 260.580,147.200 260.800 C 147.200 261.020,146.885 261.203,146.500 261.206 C 145.902 261.211,145.887 261.269,146.400 261.600 C 146.874 261.906,146.785 261.989,145.979 261.994 C 144.717 262.001,140.811 263.905,140.525 264.652 C 140.386 265.013,139.645 265.200,138.357 265.200 C 137.281 265.200,136.400 265.380,136.400 265.600 C 136.400 265.820,135.849 266.000,135.176 266.000 C 134.463 266.000,134.056 266.167,134.200 266.400 C 134.336 266.620,134.077 266.800,133.624 266.800 C 133.171 266.800,132.800 266.963,132.800 267.163 C 132.800 267.510,131.236 267.748,125.700 268.244 C 124.325 268.367,123.200 268.633,123.200 268.834 C 123.200 269.035,122.120 269.200,120.800 269.200 C 119.467 269.200,118.400 269.378,118.400 269.600 C 118.400 269.820,118.040 270.000,117.600 270.000 C 117.160 270.000,116.800 269.820,116.800 269.600 C 116.800 269.371,115.600 269.200,114.000 269.200 C 112.400 269.200,111.200 269.371,111.200 269.600 C 111.200 269.820,110.750 270.000,110.200 270.000 C 109.650 270.000,109.200 269.820,109.200 269.600 C 109.200 269.380,108.221 269.200,107.024 269.200 C 105.827 269.200,104.736 269.020,104.600 268.800 C 104.464 268.580,103.373 268.400,102.176 268.400 C 100.979 268.400,100.000 268.220,100.000 268.000 C 100.000 267.780,99.370 267.600,98.600 267.600 C 97.830 267.600,97.200 267.420,97.200 267.200 C 97.200 266.978,96.133 266.800,94.800 266.800 C 93.467 266.800,92.400 266.622,92.400 266.400 C 92.400 266.180,92.040 266.000,91.600 266.000 C 91.160 266.000,90.800 265.820,90.800 265.600 C 90.800 265.380,90.521 265.200,90.181 265.200 C 89.840 265.200,88.816 264.840,87.906 264.400 C 86.995 263.960,86.003 263.600,85.701 263.600 C 85.400 263.600,85.264 263.420,85.400 263.200 C 85.536 262.980,85.277 262.800,84.824 262.800 C 84.371 262.800,84.000 262.609,84.000 262.376 C 84.000 262.143,83.835 262.055,83.632 262.180 C 83.430 262.305,82.993 262.136,82.661 261.804 C 82.329 261.472,81.774 261.200,81.429 261.200 C 81.083 261.200,80.800 261.020,80.800 260.800 C 80.800 260.580,80.440 260.400,80.000 260.400 C 79.560 260.400,79.200 260.220,79.200 260.000 C 79.200 259.780,78.840 259.600,78.400 259.600 C 77.960 259.600,77.600 259.423,77.600 259.208 C 77.600 258.992,77.126 258.696,76.546 258.551 C 75.966 258.405,75.021 257.865,74.446 257.351 C 73.871 256.837,72.690 255.783,71.822 255.008 C 70.954 254.234,70.049 253.600,69.810 253.600 C 69.572 253.600,69.117 253.240,68.800 252.800 C 68.483 252.360,67.993 252.000,67.712 252.000 C 67.430 252.000,67.200 251.822,67.200 251.605 C 67.200 251.388,65.490 249.500,63.400 247.410 C 61.310 245.320,59.600 243.428,59.600 243.205 C 59.600 242.982,59.240 242.800,58.800 242.800 C 58.300 242.800,58.000 242.533,58.000 242.088 C 58.000 241.697,57.656 241.129,57.236 240.826 C 56.816 240.524,56.564 240.038,56.675 239.748 C 56.899 239.165,55.917 238.000,55.202 238.000 C 54.928 238.000,54.848 237.680,55.000 237.200 C 55.146 236.741,55.072 236.400,54.827 236.400 C 54.592 236.400,54.400 236.040,54.400 235.600 C 54.400 235.160,54.220 234.800,54.000 234.800 C 53.780 234.800,53.600 234.519,53.600 234.176 C 53.600 233.833,53.420 233.664,53.200 233.800 C 52.967 233.944,52.800 233.537,52.800 232.824 C 52.800 231.867,52.626 231.600,52.000 231.600 C 51.378 231.600,51.200 231.333,51.200 230.400 C 51.200 229.710,50.988 229.197,50.700 229.194 C 50.367 229.190,50.400 229.058,50.800 228.800 C 51.200 228.542,51.233 228.410,50.900 228.406 C 50.625 228.403,50.400 228.130,50.400 227.800 C 50.400 227.470,50.220 227.200,50.000 227.200 C 49.780 227.200,49.600 226.700,49.600 226.088 C 49.600 225.435,49.270 224.739,48.800 224.400 C 48.214 223.978,48.000 223.365,48.000 222.112 C 48.000 221.170,47.820 220.400,47.600 220.400 C 47.380 220.400,47.200 220.040,47.200 219.600 C 47.200 219.160,47.020 218.800,46.800 218.800 C 46.580 218.800,46.400 218.530,46.400 218.200 C 46.400 217.870,46.616 217.600,46.880 217.600 C 47.253 217.600,47.253 217.493,46.880 217.120 C 46.616 216.856,46.400 216.125,46.400 215.496 C 46.400 214.836,46.231 214.457,46.000 214.600 C 45.758 214.749,45.600 214.204,45.600 213.224 C 45.600 212.331,45.420 211.600,45.200 211.600 C 44.980 211.600,44.800 211.330,44.800 211.000 C 44.800 210.670,44.980 210.400,45.200 210.400 C 45.720 210.400,45.720 208.922,45.200 208.600 C 44.980 208.464,44.800 206.814,44.800 204.934 C 44.800 201.980,44.714 201.547,44.167 201.757 C 43.819 201.891,35.885 202.000,26.535 202.000 L 9.535 202.000 9.641 206.500 C 9.700 208.975,9.880 211.379,10.042 211.843 C 10.204 212.306,10.378 213.746,10.429 215.043 C 10.480 216.339,10.677 217.709,10.868 218.086 C 11.058 218.464,11.255 219.482,11.307 220.348 C 11.358 221.214,11.535 221.840,11.700 221.738 C 11.865 221.636,12.000 222.273,12.000 223.153 C 12.000 224.033,12.180 224.864,12.400 225.000 C 12.620 225.136,12.800 225.856,12.800 226.600 C 12.800 227.344,12.980 228.064,13.200 228.200 C 13.420 228.336,13.600 228.966,13.600 229.600 C 13.600 230.234,13.780 230.864,14.000 231.000 C 14.220 231.136,14.400 231.689,14.400 232.229 C 14.400 232.769,14.580 233.568,14.800 234.005 C 15.020 234.442,15.380 235.158,15.600 235.595 C 15.820 236.032,16.000 236.752,16.000 237.195 C 16.000 237.638,16.180 238.000,16.400 238.000 C 16.620 238.000,16.800 238.265,16.800 238.588 C 16.800 238.911,17.160 239.817,17.600 240.600 C 18.040 241.383,18.400 242.289,18.400 242.612 C 18.400 242.935,18.580 243.200,18.800 243.200 C 19.020 243.200,19.200 243.434,19.200 243.720 C 19.200 244.456,20.141 246.393,20.500 246.397 C 20.665 246.399,20.800 246.634,20.800 246.920 C 20.800 247.656,21.741 249.593,22.100 249.597 C 22.265 249.599,22.400 249.960,22.400 250.400 C 22.400 250.840,22.580 251.200,22.800 251.200 C 23.020 251.200,23.200 251.560,23.200 252.000 C 23.200 252.440,23.380 252.800,23.600 252.800 C 23.820 252.800,24.000 253.081,24.000 253.424 C 24.000 253.767,24.180 253.936,24.400 253.800 C 24.620 253.664,24.800 253.889,24.800 254.301 C 24.800 254.712,25.115 255.403,25.500 255.835 C 25.885 256.268,26.543 257.292,26.963 258.111 C 27.383 258.930,27.878 259.600,28.063 259.600 C 28.248 259.600,28.400 259.843,28.400 260.141 C 28.400 260.438,28.939 261.246,29.598 261.935 C 30.257 262.625,30.842 263.412,30.898 263.685 C 30.954 263.958,31.675 264.847,32.500 265.659 C 33.325 266.472,34.000 267.421,34.000 267.769 C 34.000 268.133,34.338 268.400,34.800 268.400 C 35.240 268.400,35.600 268.654,35.600 268.965 C 35.600 269.464,38.470 272.579,41.231 275.077 C 41.764 275.559,42.830 276.676,43.600 277.559 C 44.370 278.441,45.225 279.171,45.500 279.182 C 45.775 279.192,46.000 279.380,46.000 279.600 C 46.000 279.820,46.194 280.000,46.431 280.000 C 46.669 280.000,47.554 280.720,48.400 281.600 C 49.246 282.480,50.221 283.200,50.569 283.200 C 50.916 283.200,51.200 283.380,51.200 283.600 C 51.200 283.820,51.605 284.003,52.100 284.006 C 52.847 284.011,52.898 284.085,52.400 284.441 C 51.918 284.785,51.977 284.831,52.700 284.672 C 53.195 284.564,53.600 284.646,53.600 284.856 C 53.600 285.467,55.506 287.200,56.178 287.200 C 56.517 287.200,57.018 287.560,57.293 288.000 C 57.568 288.440,58.109 288.800,58.496 288.800 C 58.883 288.800,59.200 288.939,59.200 289.109 C 59.200 289.429,60.840 290.334,63.100 291.262 C 63.815 291.555,64.400 291.931,64.400 292.098 C 64.400 292.264,64.760 292.400,65.200 292.400 C 65.640 292.400,66.001 292.535,66.003 292.700 C 66.007 293.059,67.944 294.000,68.680 294.000 C 68.966 294.000,69.200 294.180,69.200 294.400 C 69.200 294.620,69.560 294.800,70.000 294.800 C 70.440 294.800,70.800 294.980,70.800 295.200 C 70.800 295.420,71.160 295.600,71.600 295.600 C 72.040 295.600,72.400 295.780,72.400 296.000 C 72.400 296.220,72.760 296.400,73.200 296.400 C 73.640 296.400,74.000 296.602,74.000 296.849 C 74.000 297.153,74.199 297.133,74.618 296.785 C 75.134 296.357,75.335 296.414,75.840 297.136 C 76.173 297.611,76.798 298.000,77.228 298.000 C 77.659 298.000,78.323 298.159,78.705 298.353 C 79.087 298.548,79.940 298.929,80.600 299.200 C 81.260 299.471,82.113 299.852,82.495 300.047 C 82.877 300.241,83.732 300.400,84.395 300.400 C 85.058 300.400,85.600 300.580,85.600 300.800 C 85.600 301.020,86.230 301.200,87.000 301.200 C 87.770 301.200,88.400 301.345,88.400 301.522 C 88.400 301.699,89.165 301.888,90.100 301.942 C 91.035 301.996,91.860 302.211,91.933 302.420 C 92.007 302.629,92.761 302.800,93.610 302.800 C 94.458 302.800,95.264 302.980,95.400 303.200 C 95.536 303.420,96.638 303.600,97.850 303.600 C 99.061 303.600,100.370 303.770,100.757 303.977 C 101.145 304.185,102.849 304.391,104.544 304.436 C 106.239 304.481,107.698 304.635,107.787 304.779 C 108.117 305.313,111.215 305.255,111.106 304.717 C 110.934 303.878,117.239 303.765,117.846 304.596 C 118.196 305.075,118.686 305.165,119.855 304.967 C 120.705 304.823,122.975 304.623,124.900 304.524 C 126.825 304.425,128.400 304.176,128.400 303.972 C 128.400 303.767,129.570 303.600,131.000 303.600 C 132.430 303.600,133.600 303.440,133.600 303.244 C 133.600 302.895,134.678 302.654,138.493 302.150 C 139.534 302.012,140.288 301.742,140.169 301.550 C 140.050 301.357,140.683 301.200,141.576 301.200 C 142.469 301.200,143.200 301.020,143.200 300.800 C 143.200 300.580,143.560 300.400,144.000 300.400 C 144.440 300.400,144.800 300.220,144.800 300.000 C 144.800 299.780,145.419 299.600,146.176 299.600 C 146.933 299.600,147.664 299.420,147.800 299.200 C 147.936 298.980,148.577 298.800,149.224 298.800 C 149.871 298.800,150.400 298.620,150.400 298.400 C 150.400 298.180,150.850 298.000,151.400 298.000 C 151.950 298.000,152.400 297.820,152.400 297.600 C 152.400 297.380,152.810 297.200,153.312 297.200 C 153.813 297.200,154.480 296.844,154.794 296.409 C 155.220 295.817,155.451 295.741,155.712 296.109 C 155.987 296.496,156.104 296.494,156.264 296.100 C 156.375 295.825,156.812 295.600,157.233 295.600 C 157.655 295.600,158.000 295.420,158.000 295.200 C 158.000 294.980,158.360 294.800,158.800 294.800 C 159.240 294.800,159.601 294.665,159.603 294.500 C 159.607 294.135,161.549 293.200,162.303 293.200 C 162.602 293.200,162.736 293.020,162.600 292.800 C 162.464 292.580,162.748 292.400,163.232 292.400 C 163.716 292.400,164.317 292.120,164.567 291.778 C 164.817 291.435,165.287 291.111,165.611 291.058 C 166.629 290.888,169.200 289.525,169.200 289.154 C 169.200 288.959,169.470 288.800,169.800 288.800 C 170.130 288.800,170.400 288.620,170.400 288.400 C 170.400 288.180,170.625 288.000,170.900 287.999 C 171.175 287.999,172.030 287.459,172.800 286.800 C 173.570 286.141,174.385 285.601,174.612 285.601 C 174.838 285.600,175.283 285.240,175.600 284.800 C 175.917 284.360,176.497 284.000,176.888 284.000 C 177.333 284.000,177.600 283.700,177.600 283.200 C 177.600 282.734,177.867 282.400,178.240 282.400 C 178.591 282.400,179.383 281.860,180.000 281.200 C 180.617 280.540,181.386 280.000,181.710 280.000 C 182.046 280.000,182.404 279.482,182.540 278.800 C 182.712 277.941,183.010 277.600,183.590 277.600 C 184.809 277.600,191.036 271.367,190.865 270.317 C 190.757 269.650,190.893 269.531,191.566 269.707 C 192.025 269.827,192.300 269.762,192.177 269.563 C 192.054 269.363,192.156 269.200,192.405 269.200 C 192.871 269.200,194.040 268.194,194.014 267.814 C 193.949 266.831,194.039 266.306,194.240 266.507 C 194.592 266.859,197.200 264.133,197.200 263.413 C 197.200 263.076,197.380 262.800,197.600 262.800 C 197.820 262.800,198.000 262.564,198.000 262.275 C 198.000 261.987,198.360 261.364,198.800 260.892 C 199.240 260.420,199.600 259.833,199.600 259.588 C 199.600 259.343,199.870 258.873,200.200 258.543 C 200.530 258.213,200.800 257.599,200.800 257.178 C 200.800 256.758,201.515 255.246,202.389 253.818 C 209.640 241.971,214.635 227.802,216.426 214.000 C 216.995 209.611,217.687 201.602,217.627 200.100 C 217.598 199.385,217.769 198.800,218.006 198.800 C 218.264 198.800,218.399 198.076,218.343 196.995 C 218.292 196.002,218.452 194.988,218.699 194.741 C 219.032 194.408,218.999 194.142,218.574 193.717 C 217.831 192.974,217.842 191.815,218.600 191.057 C 218.940 190.717,219.200 189.740,219.200 188.805 C 219.200 187.730,219.350 187.245,219.630 187.418 C 219.866 187.564,219.821 187.299,219.530 186.830 C 219.100 186.137,219.097 185.915,219.514 185.656 C 219.806 185.474,219.913 185.039,219.762 184.646 C 219.592 184.203,219.802 183.672,220.345 183.166 C 221.066 182.494,221.118 182.255,220.696 181.564 C 220.280 180.882,220.314 180.667,220.907 180.226 C 221.298 179.936,221.510 179.432,221.382 179.098 C 221.250 178.753,221.593 178.017,222.181 177.382 C 223.019 176.478,223.165 176.021,222.961 174.935 C 222.743 173.769,222.816 173.600,223.543 173.600 C 224.118 173.600,224.304 173.415,224.145 173.000 C 224.018 172.670,224.089 172.400,224.302 172.400 C 224.515 172.400,224.603 171.950,224.498 171.400 C 224.386 170.816,224.493 170.400,224.753 170.400 C 224.999 170.400,225.200 170.130,225.200 169.800 C 225.200 169.470,225.380 169.200,225.600 169.200 C 225.820 169.200,226.000 168.762,226.000 168.227 C 226.000 167.605,226.289 167.162,226.800 167.000 C 227.311 166.838,227.600 166.395,227.600 165.773 C 227.600 165.238,227.780 164.800,228.000 164.800 C 228.220 164.800,228.400 164.570,228.400 164.288 C 228.400 164.007,228.760 163.517,229.200 163.200 C 229.640 162.883,230.000 162.343,230.000 162.000 C 230.000 161.657,230.360 161.117,230.800 160.800 C 231.240 160.483,231.600 159.943,231.600 159.600 C 231.600 159.257,231.985 158.712,232.455 158.388 C 234.131 157.235,235.170 155.986,234.943 155.396 C 234.817 155.068,234.914 154.778,235.157 154.750 C 235.401 154.722,235.820 154.678,236.088 154.650 C 236.357 154.623,236.804 154.150,237.082 153.600 C 237.361 153.050,237.591 152.748,237.594 152.929 C 237.604 153.492,238.680 152.208,238.974 151.281 C 239.135 150.773,239.581 150.400,240.027 150.400 C 240.463 150.400,240.800 150.126,240.800 149.771 C 240.800 149.034,241.740 148.000,242.411 148.000 C 242.668 148.000,243.383 147.460,244.000 146.800 C 244.617 146.140,245.337 145.600,245.600 145.600 C 245.863 145.600,246.583 145.060,247.200 144.400 C 247.817 143.740,248.609 143.200,248.960 143.200 C 249.312 143.200,249.600 143.020,249.600 142.800 C 249.600 142.580,250.005 142.397,250.500 142.394 C 251.228 142.389,251.285 142.314,250.800 142.000 C 250.307 141.681,250.349 141.611,251.033 141.606 C 251.492 141.603,252.002 141.465,252.167 141.300 C 252.332 141.135,252.587 140.985,252.733 140.966 C 253.762 140.837,255.174 139.911,255.393 139.222 C 255.591 138.597,255.879 138.455,256.584 138.632 C 257.095 138.760,257.633 138.670,257.780 138.432 C 257.927 138.195,258.397 138.000,258.824 138.000 C 259.251 138.000,259.600 137.820,259.600 137.600 C 259.600 137.380,260.050 137.200,260.600 137.200 C 261.150 137.200,261.600 137.020,261.600 136.800 C 261.600 136.580,262.035 136.400,262.567 136.400 C 263.098 136.400,263.593 136.222,263.667 136.003 C 263.740 135.785,264.295 135.566,264.900 135.516 C 265.505 135.466,266.000 135.285,266.000 135.113 C 266.000 134.941,266.439 134.800,266.976 134.800 C 267.513 134.800,268.064 134.620,268.200 134.400 C 268.336 134.180,269.067 134.000,269.824 134.000 C 270.581 134.000,271.200 133.820,271.200 133.600 C 271.200 133.380,272.100 133.200,273.200 133.200 C 274.300 133.200,275.200 133.020,275.200 132.800 C 275.200 132.571,276.400 132.400,278.000 132.400 C 279.600 132.400,280.800 132.229,280.800 132.000 C 280.800 131.505,294.657 131.446,294.962 131.939 C 295.077 132.125,296.479 132.316,298.077 132.363 C 299.675 132.409,301.076 132.599,301.191 132.784 C 301.391 133.106,303.022 133.332,304.500 133.242 C 305.155 133.203,305.200 132.093,305.200 115.889 C 305.200 96.242,305.422 97.473,301.833 97.252 C 300.755 97.186,299.456 96.973,298.947 96.780 C 297.784 96.338,276.103 96.309,275.831 96.749 " stroke="none" fill="#84b4a3" fill-rule="evenodd"></path><path id="path1" d="M102.200 96.800 C 102.064 97.020,100.883 97.200,99.576 97.200 C 98.259 97.200,97.200 97.378,97.200 97.600 C 97.200 97.820,96.210 98.000,95.000 98.000 C 93.790 98.000,92.800 98.180,92.800 98.400 C 92.800 98.620,92.181 98.800,91.424 98.800 C 90.667 98.800,89.936 98.980,89.800 99.200 C 89.664 99.420,88.843 99.600,87.976 99.600 C 87.109 99.600,86.400 99.780,86.400 100.000 C 86.400 100.220,85.871 100.400,85.224 100.400 C 84.577 100.400,83.936 100.580,83.800 100.800 C 83.664 101.020,82.933 101.200,82.176 101.200 C 81.419 101.200,80.800 101.380,80.800 101.600 C 80.800 101.820,80.361 102.000,79.824 102.000 C 79.287 102.000,78.736 102.180,78.600 102.400 C 78.464 102.620,78.003 102.800,77.576 102.800 C 77.149 102.800,76.800 102.980,76.800 103.200 C 76.800 103.420,76.350 103.600,75.800 103.600 C 75.250 103.600,74.800 103.780,74.800 104.000 C 74.800 104.220,74.440 104.400,74.000 104.400 C 73.560 104.400,73.200 104.580,73.200 104.800 C 73.200 105.020,72.660 105.200,72.000 105.200 C 71.340 105.200,70.799 105.335,70.797 105.500 C 70.793 105.859,68.856 106.800,68.120 106.800 C 67.834 106.800,67.600 106.980,67.600 107.200 C 67.600 107.420,67.240 107.600,66.800 107.600 C 66.360 107.600,66.000 107.780,66.000 108.000 C 66.000 108.220,65.728 108.400,65.395 108.400 C 64.830 108.400,63.253 109.135,62.800 109.609 C 62.282 110.151,60.372 111.200,59.902 111.200 C 59.613 111.200,59.117 111.560,58.800 112.000 C 58.483 112.440,57.943 112.800,57.600 112.800 C 57.257 112.800,56.717 113.160,56.400 113.600 C 56.083 114.040,55.569 114.400,55.259 114.400 C 54.948 114.400,54.391 114.749,54.022 115.175 C 53.652 115.601,53.092 116.006,52.778 116.075 C 52.465 116.144,51.729 116.695,51.143 117.300 C 50.558 117.905,49.925 118.400,49.737 118.400 C 49.549 118.400,48.677 119.076,47.798 119.903 C 46.919 120.730,45.614 121.823,44.898 122.332 C 43.141 123.581,36.400 130.330,36.400 130.840 C 36.400 131.064,36.220 131.136,36.000 131.000 C 35.780 130.864,35.600 131.015,35.600 131.336 C 35.600 131.657,34.700 132.838,33.600 133.961 C 32.500 135.085,31.600 136.201,31.600 136.442 C 31.600 136.682,31.060 137.383,30.400 138.000 C 29.740 138.617,29.200 139.343,29.200 139.614 C 29.200 139.884,28.866 140.397,28.457 140.753 C 27.420 141.656,24.800 145.831,24.800 146.581 C 24.800 146.921,24.620 147.200,24.400 147.200 C 24.180 147.200,24.000 147.481,24.000 147.824 C 24.000 148.167,23.820 148.336,23.600 148.200 C 23.380 148.064,23.200 148.198,23.200 148.497 C 23.200 149.251,22.265 151.193,21.900 151.197 C 21.735 151.199,21.600 151.560,21.600 152.000 C 21.600 152.440,21.420 152.800,21.200 152.800 C 20.980 152.800,20.800 153.160,20.800 153.600 C 20.800 154.040,20.620 154.400,20.400 154.400 C 20.180 154.400,20.000 154.760,20.000 155.200 C 20.000 155.640,19.820 156.000,19.600 156.000 C 19.380 156.000,19.200 156.360,19.200 156.800 C 19.200 157.240,19.020 157.600,18.800 157.600 C 18.580 157.600,18.400 157.960,18.400 158.400 C 18.400 158.840,18.220 159.200,18.000 159.200 C 17.780 159.200,17.600 159.549,17.600 159.976 C 17.600 160.403,17.420 160.864,17.200 161.000 C 16.980 161.136,16.800 161.697,16.800 162.247 C 16.800 162.797,16.658 163.160,16.485 163.052 C 16.312 162.945,16.130 163.340,16.081 163.929 C 16.033 164.518,15.815 165.060,15.597 165.133 C 15.378 165.207,15.200 165.792,15.200 166.433 C 15.200 167.075,15.020 167.600,14.800 167.600 C 14.580 167.600,14.400 168.140,14.400 168.800 C 14.400 169.460,14.220 170.000,14.000 170.000 C 13.780 170.000,13.600 170.540,13.600 171.200 C 13.600 171.860,13.420 172.400,13.200 172.400 C 12.980 172.400,12.800 173.120,12.800 174.000 C 12.800 174.880,12.657 175.600,12.482 175.600 C 12.307 175.600,12.118 176.275,12.063 177.099 C 12.007 177.924,11.790 178.770,11.581 178.979 C 11.371 179.189,11.200 180.123,11.200 181.056 C 11.200 181.989,11.046 182.848,10.858 182.964 C 10.670 183.080,10.484 184.375,10.443 185.842 C 10.403 187.309,10.225 188.799,10.047 189.154 C 9.870 189.509,9.685 192.365,9.636 195.500 L 9.548 201.200 27.174 201.200 L 44.800 201.200 44.800 196.000 C 44.800 192.800,44.954 190.800,45.200 190.800 C 45.423 190.800,45.600 189.725,45.600 188.376 C 45.600 186.863,45.750 186.046,46.000 186.200 C 46.242 186.349,46.400 185.804,46.400 184.824 C 46.400 183.931,46.580 183.200,46.800 183.200 C 47.020 183.200,47.200 182.581,47.200 181.824 C 47.200 181.067,47.380 180.336,47.600 180.200 C 47.820 180.064,48.000 179.423,48.000 178.776 C 48.000 178.129,48.180 177.600,48.400 177.600 C 48.620 177.600,48.800 177.240,48.800 176.800 C 48.800 176.360,48.980 176.000,49.200 176.000 C 49.420 176.000,49.600 175.676,49.600 175.280 C 49.600 174.386,50.494 172.407,50.900 172.403 C 51.065 172.401,51.200 172.040,51.200 171.600 C 51.200 171.160,51.380 170.800,51.600 170.800 C 51.820 170.800,52.000 170.440,52.000 170.000 C 52.000 169.560,52.180 169.200,52.400 169.200 C 52.620 169.200,52.800 168.840,52.800 168.400 C 52.800 167.960,52.980 167.600,53.200 167.600 C 53.420 167.600,53.600 167.323,53.600 166.984 C 53.600 166.359,55.150 163.911,55.700 163.667 C 55.865 163.593,56.000 163.270,56.000 162.949 C 56.000 162.628,56.450 161.880,57.000 161.287 C 57.550 160.693,58.000 160.008,58.000 159.763 C 58.000 159.519,58.540 158.754,59.200 158.063 C 59.860 157.372,60.400 156.714,60.400 156.599 C 60.400 156.234,68.776 148.000,69.147 148.000 C 69.343 148.000,70.245 147.280,71.152 146.400 C 72.059 145.520,72.953 144.800,73.138 144.800 C 73.324 144.800,73.802 144.440,74.200 144.000 C 74.598 143.560,75.126 143.200,75.374 143.200 C 75.621 143.200,76.083 142.840,76.400 142.400 C 76.717 141.960,77.297 141.600,77.688 141.600 C 78.080 141.600,78.400 141.420,78.400 141.200 C 78.400 140.980,78.539 140.845,78.708 140.900 C 79.185 141.055,82.400 139.521,82.400 139.139 C 82.400 138.953,82.755 138.800,83.188 138.800 C 83.621 138.800,84.617 138.440,85.400 138.000 C 86.183 137.560,87.089 137.200,87.412 137.200 C 87.735 137.200,88.000 137.064,88.000 136.897 C 88.000 136.566,90.824 135.600,91.794 135.600 C 92.127 135.600,92.400 135.420,92.400 135.200 C 92.400 134.980,92.839 134.800,93.376 134.800 C 93.913 134.800,94.464 134.620,94.600 134.400 C 94.736 134.180,95.456 134.000,96.200 134.000 C 96.944 134.000,97.664 133.820,97.800 133.600 C 97.936 133.380,98.847 133.200,99.824 133.200 C 100.801 133.200,101.600 133.020,101.600 132.800 C 101.600 132.575,102.725 132.400,104.176 132.400 C 105.593 132.400,106.864 132.220,107.000 132.000 C 107.149 131.759,109.937 131.600,114.024 131.600 C 118.275 131.600,120.800 131.749,120.800 132.000 C 120.800 132.229,122.000 132.400,123.600 132.400 C 125.200 132.400,126.400 132.571,126.400 132.800 C 126.400 133.020,127.210 133.200,128.200 133.200 C 129.190 133.200,130.000 133.380,130.000 133.600 C 130.000 133.820,130.720 134.000,131.600 134.000 C 132.480 134.000,133.200 134.180,133.200 134.400 C 133.200 134.620,133.740 134.800,134.400 134.800 C 135.060 134.800,135.600 134.980,135.600 135.200 C 135.600 135.420,136.140 135.600,136.800 135.600 C 137.460 135.600,138.000 135.780,138.000 136.000 C 138.000 136.220,138.362 136.400,138.805 136.400 C 139.703 136.400,139.705 136.401,145.100 139.249 C 146.255 139.858,147.200 140.249,147.200 140.117 C 147.200 139.984,147.515 140.153,147.900 140.491 C 148.285 140.829,149.005 141.229,149.500 141.380 C 149.995 141.530,150.400 141.822,150.400 142.027 C 150.400 142.232,150.720 142.400,151.112 142.400 C 151.503 142.400,152.083 142.760,152.400 143.200 C 152.717 143.640,153.225 144.000,153.528 144.000 C 153.831 144.000,154.583 144.540,155.200 145.200 C 155.817 145.860,156.499 146.400,156.717 146.400 C 157.114 146.400,162.413 151.609,165.400 154.936 C 166.280 155.916,167.135 156.636,167.300 156.535 C 167.465 156.435,167.600 156.644,167.600 157.000 C 167.600 157.356,167.780 157.536,168.000 157.400 C 168.220 157.264,168.400 157.407,168.400 157.717 C 168.400 158.027,168.940 158.846,169.600 159.537 C 170.260 160.228,170.800 161.025,170.800 161.308 C 170.800 161.591,171.160 162.083,171.600 162.400 C 172.040 162.717,172.400 163.214,172.400 163.505 C 172.400 163.796,172.760 164.420,173.200 164.892 C 173.640 165.364,174.000 165.987,174.000 166.275 C 174.000 166.564,174.180 166.800,174.400 166.800 C 174.620 166.800,174.800 167.076,174.800 167.413 C 174.800 167.750,175.430 169.324,176.200 170.911 C 176.970 172.499,177.600 174.113,177.600 174.499 C 177.600 174.884,177.780 175.200,178.000 175.200 C 178.220 175.200,178.400 175.560,178.400 176.000 C 178.400 176.440,178.580 176.800,178.800 176.800 C 179.020 176.800,179.200 177.340,179.200 178.000 C 179.200 178.660,179.380 179.200,179.600 179.200 C 179.820 179.200,180.000 179.819,180.000 180.576 C 180.000 181.333,180.180 182.064,180.400 182.200 C 180.620 182.336,180.800 182.966,180.800 183.600 C 180.800 184.234,180.980 184.864,181.200 185.000 C 181.420 185.136,181.600 186.147,181.600 187.247 C 181.600 188.479,181.754 189.152,182.000 189.000 C 182.254 188.843,182.402 189.964,182.406 192.076 C 182.419 198.907,183.207 196.712,184.805 185.400 C 186.611 172.609,191.655 158.550,198.454 147.359 C 200.469 144.042,200.995 142.450,200.178 142.136 C 199.860 142.014,199.600 141.613,199.600 141.246 C 199.600 140.878,199.240 140.317,198.800 140.000 C 198.360 139.683,198.000 139.220,198.000 138.971 C 198.000 138.722,197.460 137.954,196.800 137.263 C 196.140 136.572,195.600 135.822,195.600 135.596 C 195.600 135.370,194.430 134.015,193.000 132.585 C 191.570 131.155,190.400 129.783,190.400 129.537 C 190.400 128.961,185.379 124.000,184.796 124.000 C 184.554 124.000,183.296 122.920,182.000 121.600 C 180.704 120.280,179.437 119.200,179.183 119.200 C 178.929 119.200,178.241 118.705,177.655 118.100 C 176.295 116.698,173.350 114.400,172.912 114.400 C 172.727 114.400,172.317 114.040,172.000 113.600 C 171.683 113.160,171.186 112.800,170.895 112.800 C 170.604 112.800,169.980 112.440,169.508 112.000 C 169.036 111.560,168.413 111.200,168.125 111.200 C 167.836 111.200,167.600 111.020,167.600 110.800 C 167.600 110.580,167.240 110.400,166.800 110.400 C 166.360 110.400,166.000 110.253,166.000 110.074 C 166.000 109.676,163.399 108.400,162.586 108.400 C 162.264 108.400,162.000 108.220,162.000 108.000 C 162.000 107.780,161.640 107.600,161.200 107.600 C 160.760 107.600,160.400 107.420,160.400 107.200 C 160.400 106.980,160.040 106.800,159.600 106.800 C 159.160 106.800,158.800 106.620,158.800 106.400 C 158.800 106.180,158.440 106.000,158.000 106.000 C 157.560 106.000,157.199 105.865,157.197 105.700 C 157.193 105.294,155.214 104.400,154.320 104.400 C 153.924 104.400,153.600 104.220,153.600 104.000 C 153.600 103.780,153.240 103.600,152.800 103.600 C 152.360 103.600,152.000 103.420,152.000 103.200 C 152.000 102.980,151.460 102.800,150.800 102.800 C 150.140 102.800,149.600 102.620,149.600 102.400 C 149.600 102.180,149.060 102.000,148.400 102.000 C 147.740 102.000,147.200 101.820,147.200 101.600 C 147.200 101.380,146.660 101.200,146.000 101.200 C 145.340 101.200,144.800 101.020,144.800 100.800 C 144.800 100.580,144.260 100.400,143.600 100.400 C 142.940 100.400,142.400 100.220,142.400 100.000 C 142.400 99.780,141.781 99.600,141.024 99.600 C 140.267 99.600,139.536 99.420,139.400 99.200 C 139.264 98.980,138.544 98.800,137.800 98.800 C 137.056 98.800,136.336 98.620,136.200 98.400 C 136.064 98.180,135.164 98.000,134.200 98.000 C 133.236 98.000,132.354 97.850,132.241 97.666 C 132.128 97.483,130.902 97.292,129.517 97.243 C 128.133 97.194,126.829 96.984,126.620 96.777 C 126.093 96.254,102.523 96.277,102.200 96.800 M353.052 118.085 C 353.160 118.258,351.987 118.400,350.447 118.400 C 348.907 118.400,347.536 118.580,347.400 118.800 C 347.264 119.020,346.623 119.200,345.976 119.200 C 345.329 119.200,344.800 119.380,344.800 119.600 C 344.800 119.820,344.476 120.000,344.080 120.000 C 343.186 120.000,341.207 120.894,341.203 121.300 C 341.201 121.465,340.840 121.600,340.400 121.600 C 339.960 121.600,339.600 121.780,339.600 122.000 C 339.600 122.220,339.280 122.400,338.888 122.400 C 338.497 122.400,337.917 122.760,337.600 123.200 C 337.283 123.640,336.794 124.000,336.515 124.000 C 335.589 124.000,330.000 129.278,330.000 130.152 C 330.000 130.411,329.640 130.883,329.200 131.200 C 328.760 131.517,328.400 132.097,328.400 132.488 C 328.400 132.880,328.265 133.201,328.100 133.203 C 327.741 133.207,326.800 135.144,326.800 135.880 C 326.800 136.166,326.664 136.400,326.497 136.400 C 326.075 136.400,325.130 139.563,325.414 140.023 C 325.542 140.230,325.457 140.400,325.224 140.400 C 324.987 140.400,324.800 141.207,324.800 142.224 C 324.800 143.266,324.638 143.947,324.422 143.814 C 323.477 143.229,324.562 158.006,325.567 159.400 C 325.726 159.620,326.097 160.565,326.392 161.500 C 326.687 162.435,327.060 163.200,327.221 163.200 C 327.382 163.200,327.625 163.644,327.761 164.186 C 327.897 164.728,328.456 165.620,329.004 166.168 C 329.552 166.715,330.000 167.340,330.000 167.556 C 330.000 168.692,337.659 175.200,338.996 175.200 C 339.328 175.200,339.600 175.380,339.600 175.600 C 339.600 175.820,339.960 176.000,340.400 176.000 C 340.840 176.000,341.200 176.180,341.200 176.400 C 341.200 176.620,341.560 176.800,342.000 176.800 C 342.440 176.800,342.800 176.980,342.800 177.200 C 342.800 177.420,343.250 177.600,343.800 177.600 C 344.350 177.600,344.800 177.780,344.800 178.000 C 344.800 178.220,345.520 178.400,346.400 178.400 C 347.280 178.400,348.000 178.580,348.000 178.800 C 348.000 179.029,349.200 179.200,350.800 179.200 C 352.400 179.200,353.600 179.371,353.600 179.600 C 353.600 179.820,354.230 180.000,355.000 180.000 C 355.770 180.000,356.400 179.820,356.400 179.600 C 356.400 179.371,357.600 179.200,359.200 179.200 C 360.800 179.200,362.000 179.029,362.000 178.800 C 362.000 178.580,362.720 178.400,363.600 178.400 C 364.480 178.400,365.200 178.220,365.200 178.000 C 365.200 177.780,365.560 177.600,366.000 177.600 C 366.440 177.600,366.800 177.420,366.800 177.200 C 366.800 176.980,367.034 176.800,367.320 176.800 C 368.056 176.800,369.993 175.859,369.997 175.500 C 369.999 175.335,370.276 175.200,370.614 175.200 C 371.441 175.200,373.162 174.097,374.477 172.724 C 375.070 172.106,375.865 171.600,376.244 171.600 C 376.623 171.600,376.833 171.500,376.710 171.377 C 376.588 171.254,377.098 170.561,377.844 169.837 C 378.590 169.112,379.200 168.352,379.200 168.148 C 379.200 167.944,379.560 167.517,380.000 167.200 C 380.440 166.883,380.800 166.386,380.800 166.095 C 380.800 165.804,381.160 165.180,381.600 164.708 C 382.040 164.236,382.400 163.613,382.400 163.325 C 382.400 163.036,382.580 162.800,382.800 162.800 C 383.020 162.800,383.200 162.440,383.200 162.000 C 383.200 161.560,383.347 161.200,383.528 161.200 C 383.708 161.200,384.104 160.289,384.407 159.175 C 384.710 158.061,385.103 157.060,385.279 156.951 C 385.456 156.842,385.600 155.964,385.600 155.000 C 385.600 154.036,385.765 153.145,385.967 153.021 C 386.168 152.896,386.333 151.087,386.333 149.000 C 386.333 146.913,386.168 145.104,385.967 144.979 C 385.765 144.855,385.600 143.953,385.600 142.976 C 385.600 141.999,385.420 141.200,385.200 141.200 C 384.980 141.200,384.800 140.660,384.800 140.000 C 384.800 139.340,384.620 138.800,384.400 138.800 C 384.180 138.800,384.000 138.260,384.000 137.600 C 384.000 136.940,383.820 136.400,383.600 136.400 C 383.380 136.400,383.200 136.040,383.200 135.600 C 383.200 135.160,383.020 134.800,382.800 134.800 C 382.580 134.800,382.400 134.480,382.400 134.088 C 382.400 133.697,382.040 133.117,381.600 132.800 C 381.160 132.483,380.800 131.993,380.800 131.712 C 380.800 131.431,380.080 130.459,379.200 129.552 C 378.320 128.645,377.600 127.735,377.600 127.528 C 377.600 127.322,377.420 127.264,377.200 127.400 C 376.980 127.536,376.800 127.379,376.800 127.051 C 376.800 126.722,376.457 126.345,376.037 126.212 C 375.617 126.079,375.173 125.706,375.050 125.385 C 374.926 125.063,374.539 124.800,374.189 124.800 C 373.839 124.800,373.652 124.640,373.773 124.444 C 373.894 124.248,373.389 123.801,372.652 123.451 C 371.914 123.101,371.098 122.559,370.839 122.247 C 370.579 121.934,369.565 121.442,368.584 121.152 C 367.603 120.862,366.800 120.485,366.800 120.313 C 366.800 120.141,366.440 120.000,366.000 120.000 C 365.560 120.000,365.200 119.820,365.200 119.600 C 365.200 119.380,364.480 119.200,363.600 119.200 C 362.720 119.200,362.000 119.020,362.000 118.800 C 362.000 118.578,360.933 118.400,359.600 118.400 C 358.242 118.400,357.200 118.224,357.200 117.994 C 357.200 117.758,356.291 117.626,355.029 117.679 C 353.835 117.729,352.945 117.911,353.052 118.085 M357.600 202.000 C 357.600 202.440,357.420 202.800,357.200 202.800 C 356.964 202.800,356.800 204.240,356.800 206.320 C 356.800 208.256,356.637 210.011,356.437 210.220 C 356.237 210.429,355.977 211.500,355.858 212.600 C 355.499 215.931,355.131 217.600,354.756 217.600 C 354.560 217.600,354.400 218.320,354.400 219.200 C 354.400 220.080,354.220 220.800,354.000 220.800 C 353.780 220.800,353.600 221.340,353.600 222.000 C 353.600 222.660,353.420 223.200,353.200 223.200 C 352.980 223.200,352.800 223.650,352.800 224.200 C 352.800 224.750,352.620 225.200,352.400 225.200 C 352.180 225.200,352.000 225.560,352.000 226.000 C 352.000 226.440,351.820 226.800,351.600 226.800 C 351.380 226.800,351.200 227.072,351.200 227.405 C 351.200 228.051,350.929 228.686,349.836 230.600 C 349.459 231.260,349.051 232.115,348.929 232.500 C 348.807 232.885,348.548 233.200,348.353 233.200 C 348.159 233.200,348.000 233.560,348.000 234.000 C 348.000 234.440,347.820 234.800,347.600 234.800 C 347.380 234.800,347.200 235.078,347.200 235.417 C 347.200 235.756,346.840 236.420,346.400 236.892 C 345.960 237.364,345.600 237.987,345.600 238.275 C 345.600 238.564,345.441 238.800,345.246 238.800 C 345.051 238.800,344.587 239.441,344.215 240.224 C 343.844 241.007,343.283 241.747,342.970 241.867 C 342.656 241.987,342.400 242.335,342.400 242.639 C 342.400 243.252,331.019 254.800,330.415 254.800 C 330.207 254.800,329.623 255.205,329.118 255.700 C 328.613 256.195,327.705 256.855,327.100 257.168 C 326.495 257.480,326.000 257.885,326.000 258.068 C 326.000 258.250,325.758 258.400,325.461 258.400 C 325.165 258.400,324.512 258.756,324.010 259.192 C 323.508 259.627,322.940 259.887,322.748 259.768 C 322.557 259.650,322.400 259.743,322.400 259.976 C 322.400 260.209,322.040 260.400,321.600 260.400 C 321.160 260.400,320.800 260.580,320.800 260.800 C 320.800 261.020,320.440 261.200,320.000 261.200 C 319.560 261.200,319.200 261.380,319.200 261.600 C 319.200 261.820,318.917 262.000,318.571 262.000 C 318.226 262.000,317.671 262.272,317.339 262.604 C 317.007 262.936,316.570 263.105,316.368 262.980 C 316.165 262.855,316.000 262.943,316.000 263.176 C 316.000 263.409,315.640 263.600,315.200 263.600 C 314.760 263.600,314.400 263.780,314.400 264.000 C 314.400 264.220,313.849 264.400,313.176 264.400 C 312.463 264.400,312.056 264.567,312.200 264.800 C 312.344 265.033,311.937 265.200,311.224 265.200 C 310.551 265.200,310.000 265.380,310.000 265.600 C 310.000 265.820,309.561 266.000,309.024 266.000 C 308.487 266.000,307.936 266.180,307.800 266.400 C 307.664 266.620,306.833 266.800,305.953 266.800 C 304.988 266.800,304.451 266.959,304.600 267.200 C 304.749 267.441,304.212 267.600,303.247 267.600 C 302.367 267.600,301.536 267.780,301.400 268.000 C 301.264 268.220,300.263 268.400,299.176 268.400 C 298.089 268.400,297.200 268.580,297.200 268.800 C 297.200 269.055,293.800 269.200,287.800 269.200 C 282.630 269.200,278.400 269.051,278.400 268.868 C 278.400 268.686,277.365 268.496,276.100 268.446 C 274.835 268.396,273.740 268.185,273.667 267.978 C 273.593 267.770,272.929 267.600,272.190 267.600 C 271.452 267.600,270.736 267.420,270.600 267.200 C 270.464 266.980,269.733 266.800,268.976 266.800 C 268.219 266.800,267.600 266.620,267.600 266.400 C 267.600 266.180,267.060 266.000,266.400 266.000 C 265.740 266.000,265.200 265.820,265.200 265.600 C 265.200 265.380,264.660 265.200,264.000 265.200 C 263.340 265.200,262.800 265.020,262.800 264.800 C 262.800 264.580,262.339 264.400,261.776 264.400 C 261.196 264.400,260.860 264.227,261.000 264.000 C 261.144 263.767,260.737 263.600,260.024 263.600 C 259.351 263.600,258.799 263.465,258.799 263.300 C 258.798 263.135,257.808 262.550,256.600 262.000 C 255.392 261.450,254.402 260.877,254.401 260.727 C 254.400 260.438,252.620 259.771,252.571 260.041 C 252.556 260.129,252.226 259.883,251.839 259.496 C 251.452 259.109,251.003 258.875,250.841 258.975 C 250.678 259.075,250.293 258.807,249.985 258.379 C 249.676 257.950,249.143 257.600,248.800 257.600 C 248.457 257.600,247.917 257.240,247.600 256.800 C 247.283 256.360,246.781 256.000,246.486 256.000 C 246.190 256.000,245.071 255.100,244.000 254.000 C 242.929 252.900,241.947 252.000,241.820 252.000 C 241.470 252.000,235.600 246.060,235.600 245.706 C 235.599 245.159,233.727 243.206,233.460 243.474 C 233.317 243.617,233.200 243.423,233.200 243.043 C 233.200 242.663,233.020 242.464,232.800 242.600 C 232.580 242.736,232.400 242.549,232.400 242.184 C 232.400 241.819,231.860 241.017,231.200 240.400 C 230.540 239.783,230.000 238.991,230.000 238.640 C 230.000 238.288,229.820 238.000,229.600 238.000 C 229.380 238.000,229.200 237.680,229.200 237.288 C 229.200 236.897,228.840 236.317,228.400 236.000 C 227.960 235.683,227.600 235.103,227.600 234.712 C 227.600 234.320,227.420 234.000,227.200 234.000 C 226.980 234.000,226.800 233.640,226.800 233.200 C 226.800 232.760,226.620 232.400,226.400 232.400 C 226.180 232.400,226.000 232.040,226.000 231.600 C 226.000 231.160,225.820 230.800,225.600 230.800 C 225.380 230.800,225.200 230.547,225.200 230.237 C 225.200 229.928,224.674 228.503,224.032 227.072 C 223.390 225.640,222.970 224.363,223.099 224.234 C 223.228 224.106,223.123 224.000,222.867 224.000 C 222.610 224.000,222.400 223.460,222.400 222.800 C 222.400 222.140,222.240 221.600,222.044 221.600 C 221.709 221.600,221.483 220.678,220.942 217.097 C 220.818 216.271,220.555 215.495,220.358 215.374 C 220.161 215.252,220.000 214.454,220.000 213.600 C 220.000 212.746,219.820 211.936,219.600 211.800 C 219.380 211.664,219.200 209.943,219.200 207.976 C 219.200 201.495,218.627 203.457,216.737 216.400 C 214.967 228.519,210.228 241.650,203.435 253.252 C 201.019 257.380,200.666 259.039,202.000 260.000 C 202.440 260.317,202.800 260.785,202.800 261.040 C 202.800 261.295,203.520 262.245,204.400 263.152 C 205.280 264.059,206.000 264.995,206.000 265.232 C 206.000 265.469,206.712 266.347,207.582 267.183 C 208.452 268.019,209.054 268.813,208.919 268.948 C 208.616 269.250,218.608 279.200,219.214 279.200 C 219.455 279.200,220.529 280.100,221.600 281.200 C 222.671 282.300,223.758 283.200,224.014 283.200 C 224.270 283.200,224.983 283.740,225.600 284.400 C 226.217 285.060,226.919 285.600,227.160 285.600 C 227.402 285.600,227.600 285.750,227.600 285.932 C 227.600 286.115,228.095 286.519,228.700 286.830 C 229.305 287.140,230.091 287.711,230.447 288.097 C 230.803 288.484,231.388 288.800,231.747 288.800 C 232.106 288.800,232.400 288.954,232.400 289.142 C 232.400 289.331,233.795 290.178,235.500 291.026 C 237.205 291.875,238.660 292.711,238.733 292.884 C 238.807 293.058,239.212 293.200,239.633 293.200 C 240.055 293.200,240.400 293.380,240.400 293.600 C 240.400 293.820,240.634 294.000,240.920 294.000 C 241.656 294.000,243.593 294.941,243.597 295.300 C 243.599 295.465,244.050 295.600,244.600 295.600 C 245.150 295.600,245.600 295.780,245.600 296.000 C 245.600 296.220,245.960 296.400,246.400 296.400 C 246.840 296.400,247.200 296.580,247.200 296.800 C 247.200 297.020,247.549 297.200,247.976 297.200 C 248.403 297.200,248.864 297.380,249.000 297.600 C 249.136 297.820,249.676 298.000,250.200 298.000 C 250.724 298.000,251.264 298.180,251.400 298.400 C 251.536 298.620,252.087 298.800,252.624 298.800 C 253.161 298.800,253.600 298.980,253.600 299.200 C 253.600 299.420,254.140 299.600,254.800 299.600 C 255.460 299.600,256.000 299.780,256.000 300.000 C 256.000 300.220,256.540 300.400,257.200 300.400 C 257.860 300.400,258.400 300.580,258.400 300.800 C 258.400 301.020,259.030 301.200,259.800 301.200 C 260.570 301.200,261.200 301.380,261.200 301.600 C 261.200 301.820,261.920 302.000,262.800 302.000 C 263.680 302.000,264.400 302.180,264.400 302.400 C 264.400 302.620,265.109 302.800,265.976 302.800 C 266.843 302.800,267.664 302.980,267.800 303.200 C 267.936 303.420,269.081 303.600,270.344 303.600 C 271.607 303.600,272.811 303.767,273.020 303.972 C 273.702 304.639,294.000 305.489,294.000 304.851 C 294.000 304.663,295.575 304.475,297.500 304.434 C 299.425 304.392,301.060 304.188,301.133 303.979 C 301.207 303.771,302.422 303.600,303.833 303.600 C 305.278 303.600,306.400 303.425,306.400 303.200 C 306.400 302.980,307.300 302.800,308.400 302.800 C 309.500 302.800,310.400 302.620,310.400 302.400 C 310.400 302.180,311.120 302.000,312.000 302.000 C 312.880 302.000,313.600 301.820,313.600 301.600 C 313.600 301.380,314.320 301.200,315.200 301.200 C 316.080 301.200,316.800 301.020,316.800 300.800 C 316.800 300.580,317.340 300.400,318.000 300.400 C 318.660 300.400,319.200 300.220,319.200 300.000 C 319.200 299.780,319.740 299.600,320.400 299.600 C 321.060 299.600,321.600 299.420,321.600 299.200 C 321.600 298.980,322.039 298.800,322.576 298.800 C 323.113 298.800,323.664 298.620,323.800 298.400 C 323.936 298.180,324.487 298.000,325.024 298.000 C 325.561 298.000,326.000 297.820,326.000 297.600 C 326.000 297.380,326.360 297.200,326.800 297.200 C 327.240 297.200,327.600 297.020,327.600 296.800 C 327.600 296.580,328.039 296.400,328.576 296.400 C 329.113 296.400,329.664 296.220,329.800 296.000 C 329.936 295.780,330.397 295.600,330.824 295.600 C 331.251 295.600,331.600 295.420,331.600 295.200 C 331.600 294.980,331.960 294.800,332.400 294.800 C 332.840 294.800,333.200 294.620,333.200 294.400 C 333.200 294.180,333.560 294.000,334.000 294.000 C 334.440 294.000,334.800 293.820,334.800 293.600 C 334.800 293.380,335.160 293.200,335.600 293.200 C 336.040 293.200,336.400 293.020,336.400 292.800 C 336.400 292.580,336.760 292.400,337.200 292.400 C 337.640 292.400,338.000 292.220,338.000 292.000 C 338.000 291.780,338.366 291.600,338.813 291.600 C 339.259 291.600,339.729 291.330,339.855 291.000 C 339.982 290.670,340.426 290.400,340.843 290.400 C 341.259 290.400,341.600 290.220,341.600 290.000 C 341.600 289.780,341.920 289.600,342.312 289.600 C 342.703 289.600,343.283 289.240,343.600 288.800 C 343.917 288.360,344.457 288.000,344.800 288.000 C 345.143 288.000,345.683 287.640,346.000 287.200 C 346.317 286.760,346.825 286.400,347.128 286.400 C 347.431 286.400,348.158 285.905,348.743 285.300 C 349.329 284.695,350.057 284.146,350.361 284.081 C 350.666 284.015,351.411 283.430,352.018 282.781 C 352.625 282.131,353.419 281.600,353.784 281.600 C 354.149 281.600,354.336 281.420,354.200 281.200 C 354.064 280.980,354.143 280.800,354.375 280.800 C 354.607 280.800,355.665 279.900,356.725 278.800 C 357.785 277.700,358.821 276.791,359.026 276.780 C 359.232 276.768,360.480 275.585,361.800 274.150 C 363.120 272.716,365.325 270.364,366.700 268.924 C 368.075 267.485,369.200 266.130,369.200 265.914 C 369.200 265.698,369.740 265.017,370.400 264.400 C 371.060 263.783,371.600 263.073,371.600 262.821 C 371.600 262.570,372.050 261.914,372.600 261.364 C 373.150 260.814,373.600 260.130,373.600 259.844 C 373.600 259.558,373.960 258.998,374.400 258.600 C 374.840 258.202,375.200 257.634,375.200 257.338 C 375.200 257.042,375.380 256.800,375.600 256.800 C 375.820 256.800,376.000 256.429,376.000 255.976 C 376.000 255.523,376.180 255.264,376.400 255.400 C 376.620 255.536,376.800 255.367,376.800 255.024 C 376.800 254.681,376.980 254.400,377.200 254.400 C 377.420 254.400,377.600 254.040,377.600 253.600 C 377.600 253.160,377.780 252.800,378.000 252.800 C 378.220 252.800,378.400 252.522,378.400 252.183 C 378.400 251.844,378.760 251.180,379.200 250.708 C 379.640 250.236,380.000 249.613,380.000 249.325 C 380.000 249.036,380.180 248.800,380.400 248.800 C 380.620 248.800,380.800 248.384,380.800 247.875 C 380.800 247.367,381.160 246.564,381.600 246.092 C 382.040 245.620,382.400 244.967,382.400 244.640 C 382.400 244.314,382.580 243.936,382.800 243.800 C 383.020 243.664,383.200 243.113,383.200 242.576 C 383.200 242.039,383.380 241.600,383.600 241.600 C 383.820 241.600,384.000 241.240,384.000 240.800 C 384.000 240.360,384.180 240.000,384.400 240.000 C 384.620 240.000,384.800 239.550,384.800 239.000 C 384.800 238.450,384.980 238.000,385.200 238.000 C 385.420 238.000,385.600 237.651,385.600 237.224 C 385.600 236.797,385.780 236.336,386.000 236.200 C 386.220 236.064,386.400 235.524,386.400 235.000 C 386.400 234.476,386.580 233.936,386.800 233.800 C 387.020 233.664,387.200 233.124,387.200 232.600 C 387.200 232.076,387.341 231.560,387.513 231.454 C 387.685 231.348,387.870 230.662,387.925 229.930 C 387.980 229.199,388.200 228.540,388.413 228.467 C 388.626 228.393,388.800 227.729,388.800 226.990 C 388.800 226.252,388.941 225.560,389.113 225.454 C 389.285 225.348,389.470 224.674,389.525 223.957 C 389.579 223.240,389.776 222.461,389.961 222.227 C 390.362 221.720,390.857 218.232,390.941 215.334 C 390.973 214.198,391.135 213.133,391.300 212.967 C 391.465 212.802,391.600 210.087,391.600 206.933 L 391.600 201.200 374.600 201.200 C 357.867 201.200,357.600 201.213,357.600 202.000 M112.000 304.800 C 112.000 305.026,113.133 305.200,114.600 305.200 C 116.067 305.200,117.200 305.026,117.200 304.800 C 117.200 304.574,116.067 304.400,114.600 304.400 C 113.133 304.400,112.000 304.574,112.000 304.800 " stroke="none" fill="#2b3c43" fill-rule="evenodd"></path><path id="path2" d="M200.446 143.329 C 200.421 143.730,199.933 144.855,199.362 145.829 C 198.791 146.803,198.423 147.600,198.545 147.600 C 199.044 147.600,200.849 143.969,200.678 143.311 C 200.504 142.644,200.490 142.645,200.446 143.329 M197.414 149.035 C 197.041 149.604,196.827 150.161,196.939 150.272 C 197.050 150.383,197.429 149.918,197.781 149.237 C 198.559 147.733,198.344 147.615,197.414 149.035 M195.400 152.800 C 194.843 153.900,194.477 154.800,194.587 154.800 C 194.697 154.800,195.243 153.900,195.800 152.800 C 196.357 151.700,196.723 150.800,196.613 150.800 C 196.503 150.800,195.957 151.700,195.400 152.800 M193.472 156.619 C 192.532 158.589,192.664 158.924,193.647 157.062 C 194.093 156.216,194.387 155.454,194.301 155.367 C 194.214 155.281,193.841 155.844,193.472 156.619 M191.800 160.261 C 191.464 161.065,191.282 161.815,191.395 161.928 C 191.508 162.041,191.600 162.035,191.600 161.916 C 191.600 161.796,191.872 161.046,192.205 160.249 C 192.538 159.452,192.721 158.800,192.611 158.800 C 192.501 158.800,192.136 159.458,191.800 160.261 M190.444 163.644 C 190.198 164.351,190.066 165.000,190.152 165.085 C 190.238 165.171,190.509 164.662,190.756 163.956 C 191.002 163.249,191.134 162.600,191.048 162.515 C 190.962 162.429,190.691 162.938,190.444 163.644 M187.862 171.270 C 186.999 174.275,186.653 175.833,186.899 175.600 C 187.209 175.306,188.808 169.475,188.628 169.294 C 188.543 169.210,188.199 170.099,187.862 171.270 M186.222 177.422 C 186.072 178.225,186.028 178.962,186.126 179.060 C 186.224 179.157,186.427 178.581,186.578 177.778 C 186.728 176.975,186.772 176.238,186.674 176.140 C 186.576 176.043,186.373 176.619,186.222 177.422 M184.615 186.215 C 184.461 187.454,184.417 188.550,184.519 188.652 C 184.620 188.754,184.830 187.823,184.985 186.585 C 185.139 185.346,185.183 184.250,185.081 184.148 C 184.980 184.046,184.770 184.977,184.615 186.215 M183.679 192.820 C 183.113 196.120,183.071 197.600,183.543 197.600 C 183.867 197.600,184.592 190.458,184.297 190.164 C 184.221 190.088,183.943 191.283,183.679 192.820 M218.692 191.842 C 218.531 192.002,218.400 192.409,218.400 192.747 C 218.400 193.197,218.518 193.242,218.845 192.915 C 219.090 192.670,219.221 192.263,219.137 192.010 C 219.052 191.757,218.852 191.681,218.692 191.842 M18.300 201.500 C 23.195 201.563,31.205 201.563,36.100 201.500 C 40.995 201.436,36.990 201.384,27.200 201.384 C 17.410 201.384,13.405 201.436,18.300 201.500 M217.923 204.624 C 217.771 204.857,217.553 206.477,217.438 208.224 L 217.229 211.400 217.823 208.600 C 218.411 205.830,218.462 203.796,217.923 204.624 M216.646 214.646 C 216.500 215.893,216.459 216.993,216.557 217.090 C 216.654 217.188,216.861 216.254,217.015 215.015 C 217.170 213.777,217.210 212.677,217.105 212.571 C 216.999 212.466,216.793 213.399,216.646 214.646 M215.840 219.640 C 215.693 220.557,215.652 221.385,215.747 221.480 C 215.842 221.576,216.046 220.910,216.200 220.000 C 216.354 219.090,216.396 218.262,216.293 218.160 C 216.190 218.057,215.987 218.723,215.840 219.640 M215.022 223.422 C 214.872 224.225,214.828 224.962,214.926 225.060 C 215.024 225.157,215.227 224.581,215.378 223.778 C 215.528 222.975,215.572 222.238,215.474 222.140 C 215.376 222.043,215.173 222.619,215.022 223.422 M214.229 226.629 C 214.081 227.215,214.038 227.772,214.132 227.866 C 214.227 227.960,214.424 227.558,214.571 226.971 C 214.719 226.385,214.762 225.828,214.668 225.734 C 214.573 225.640,214.376 226.042,214.229 226.629 M213.429 229.429 C 213.281 230.015,213.238 230.572,213.332 230.666 C 213.427 230.760,213.624 230.358,213.771 229.771 C 213.919 229.185,213.962 228.628,213.868 228.534 C 213.773 228.440,213.576 228.842,213.429 229.429 M210.274 238.674 C 209.690 240.144,209.278 241.411,209.357 241.491 C 209.436 241.570,209.981 240.435,210.568 238.968 C 211.155 237.502,211.568 236.235,211.485 236.152 C 211.402 236.069,210.857 237.204,210.274 238.674 M206.682 246.611 C 206.092 247.815,205.694 248.800,205.798 248.800 C 206.067 248.800,208.084 244.751,207.905 244.571 C 207.823 244.489,207.273 245.407,206.682 246.611 M203.800 252.000 C 203.459 252.660,203.269 253.200,203.379 253.200 C 203.489 253.200,203.859 252.660,204.200 252.000 C 204.541 251.340,204.731 250.800,204.621 250.800 C 204.511 250.800,204.141 251.340,203.800 252.000 M201.987 255.021 C 201.504 255.803,201.177 256.511,201.261 256.594 C 201.345 256.678,201.820 256.038,202.318 255.173 C 203.447 253.213,203.180 253.090,201.987 255.021 " stroke="none" fill="#547a70" fill-rule="evenodd"></path><path id="path3" d="M236.073 109.687 C 235.513 110.247,235.455 110.800,235.957 110.800 C 236.324 110.800,236.927 109.594,236.683 109.349 C 236.608 109.275,236.334 109.426,236.073 109.687 M204.077 138.026 C 203.509 138.935,203.812 139.045,204.632 138.226 C 204.948 137.910,205.061 137.561,204.883 137.451 C 204.705 137.342,204.343 137.600,204.077 138.026 M239.043 151.033 C 238.667 152.011,238.749 152.108,239.400 151.457 C 240.080 150.777,240.167 150.400,239.643 150.400 C 239.446 150.400,239.176 150.685,239.043 151.033 M232.100 158.598 C 231.531 159.245,231.461 159.600,231.904 159.600 C 232.071 159.600,232.432 159.240,232.707 158.800 C 233.278 157.887,232.851 157.745,232.100 158.598 M222.800 174.429 C 222.800 175.165,222.867 175.190,223.400 174.657 C 223.730 174.327,224.000 173.954,224.000 173.829 C 224.000 173.703,223.730 173.600,223.400 173.600 C 223.060 173.600,222.800 173.959,222.800 174.429 M222.100 177.441 C 221.605 178.006,221.200 178.622,221.200 178.810 C 221.200 179.399,221.931 179.636,222.234 179.145 C 222.415 178.852,222.350 178.784,222.062 178.962 C 221.808 179.119,221.600 179.057,221.600 178.824 C 221.600 178.591,221.751 178.400,221.936 178.400 C 222.120 178.400,222.477 177.950,222.727 177.400 C 223.295 176.155,223.223 176.160,222.100 177.441 M186.200 179.200 C 186.048 179.891,186.007 180.541,186.109 180.642 C 186.211 180.744,186.409 180.253,186.550 179.550 C 186.883 177.883,186.560 177.560,186.200 179.200 M220.667 180.267 C 220.227 180.706,220.365 181.501,220.916 181.713 C 221.239 181.836,221.463 181.552,221.512 180.955 C 221.589 180.029,221.212 179.722,220.667 180.267 M219.747 185.506 C 219.179 185.875,219.153 188.000,219.717 188.000 C 219.946 188.000,220.030 187.896,219.903 187.770 C 219.777 187.643,219.824 187.013,220.009 186.370 C 220.193 185.726,220.312 185.203,220.272 185.206 C 220.232 185.209,219.996 185.344,219.747 185.506 M184.493 190.800 C 184.493 191.570,184.575 191.885,184.676 191.500 C 184.776 191.115,184.776 190.485,184.676 190.100 C 184.575 189.715,184.493 190.030,184.493 190.800 M218.200 191.600 C 217.904 192.533,218.287 194.000,218.827 194.000 C 219.032 194.000,219.200 193.820,219.200 193.600 C 219.200 193.380,219.020 193.200,218.800 193.200 C 218.580 193.200,218.400 192.840,218.400 192.400 C 218.400 191.960,218.580 191.600,218.800 191.600 C 219.020 191.600,219.200 191.420,219.200 191.200 C 219.200 190.483,218.461 190.779,218.200 191.600 M184.000 196.333 C 184.000 197.250,183.820 198.000,183.600 198.000 C 183.371 198.000,183.200 199.200,183.200 200.800 C 183.200 202.340,183.363 203.600,183.562 203.600 C 183.973 203.600,184.630 195.297,184.249 194.916 C 184.112 194.779,184.000 195.417,184.000 196.333 M217.636 200.100 C 217.669 200.815,217.607 202.570,217.498 204.000 C 217.388 205.430,217.378 206.105,217.475 205.500 C 217.572 204.895,217.819 204.400,218.025 204.400 C 218.231 204.400,218.400 203.140,218.400 201.600 C 218.400 199.943,218.232 198.800,217.987 198.800 C 217.761 198.800,217.602 199.385,217.636 200.100 M18.100 201.900 C 22.885 201.963,30.715 201.963,35.500 201.900 C 40.285 201.836,36.370 201.784,26.800 201.784 C 17.230 201.784,13.315 201.836,18.100 201.900 M216.893 210.400 C 216.893 211.170,216.975 211.485,217.076 211.100 C 217.176 210.715,217.176 210.085,217.076 209.700 C 216.975 209.315,216.893 209.630,216.893 210.400 M44.800 211.000 C 44.800 211.330,44.980 211.600,45.200 211.600 C 45.420 211.600,45.600 211.330,45.600 211.000 C 45.600 210.670,45.420 210.400,45.200 210.400 C 44.980 210.400,44.800 210.670,44.800 211.000 M181.687 213.973 C 181.726 215.353,182.200 215.607,182.512 214.415 C 182.625 213.983,182.478 213.430,182.185 213.187 C 181.760 212.835,181.659 212.994,181.687 213.973 M180.800 217.800 C 180.800 218.130,180.980 218.400,181.200 218.400 C 181.420 218.400,181.600 218.130,181.600 217.800 C 181.600 217.470,181.420 217.200,181.200 217.200 C 180.980 217.200,180.800 217.470,180.800 217.800 M180.000 220.600 C 180.000 220.967,180.194 221.202,180.430 221.123 C 180.667 221.045,180.860 220.809,180.860 220.600 C 180.860 220.391,180.667 220.155,180.430 220.077 C 180.194 219.998,180.000 220.233,180.000 220.600 M213.429 228.229 C 213.281 228.815,213.238 229.372,213.332 229.466 C 213.427 229.560,213.624 229.158,213.771 228.571 C 213.919 227.985,213.962 227.428,213.868 227.334 C 213.773 227.240,213.576 227.642,213.429 228.229 M176.679 229.100 C 176.561 229.485,176.283 230.385,176.060 231.100 C 175.838 231.815,175.803 232.400,175.983 232.400 C 176.164 232.400,176.426 231.787,176.566 231.039 C 176.707 230.290,177.087 229.576,177.411 229.451 C 178.156 229.165,178.182 228.400,177.447 228.400 C 177.142 228.400,176.797 228.715,176.679 229.100 M172.093 238.000 C 171.818 238.440,171.698 238.800,171.825 238.800 C 172.125 238.800,173.200 237.727,173.200 237.429 C 173.200 236.920,172.562 237.249,172.093 238.000 M205.000 249.200 C 204.659 249.860,204.469 250.400,204.579 250.400 C 204.689 250.400,205.059 249.860,205.400 249.200 C 205.741 248.540,205.931 248.000,205.821 248.000 C 205.711 248.000,205.341 248.540,205.000 249.200 M163.200 249.176 C 163.200 249.409,162.930 249.600,162.600 249.600 C 162.270 249.600,162.000 249.780,162.000 250.000 C 162.000 250.543,162.457 250.483,163.324 249.826 C 163.781 249.479,163.892 249.180,163.624 249.015 C 163.391 248.871,163.200 248.943,163.200 249.176 M200.060 258.642 C 199.331 259.466,199.800 259.857,200.581 259.076 C 200.921 258.736,201.200 258.354,201.200 258.229 C 201.200 257.809,200.606 258.024,200.060 258.642 M198.493 261.200 C 198.218 261.640,198.098 262.000,198.225 262.000 C 198.525 262.000,199.600 260.927,199.600 260.629 C 199.600 260.120,198.962 260.449,198.493 261.200 " stroke="none" fill="#648c7c" fill-rule="evenodd"></path><path id="path4" d="M113.100 304.289 C 113.815 304.378,114.985 304.378,115.700 304.289 C 116.415 304.201,115.830 304.128,114.400 304.128 C 112.970 304.128,112.385 304.201,113.100 304.289 " stroke="none" fill="#5c847c" fill-rule="evenodd"></path></g></svg>